<svg fill="none" height="40" viewBox="0 0 40 40" width="40" xmlns="http://www.w3.org/2000/svg"><circle cx="20" cy="20" fill="#000" r="20"/><path d="m24.7579 27.1176h-9.3982c-1.2987 0-2.3597-1.0609-2.3597-2.3597v-9.3982c0-1.2987 1.061-2.3597 2.3597-2.3597h9.3982c1.2987 0 2.3597 1.061 2.3597 2.3597v9.3982c0 1.3045-1.0552 2.3597-2.3597 2.3597z" fill="#fff"/><g fill="#000"><path d="m20.0617 23.6854c-.9682 0-1.8785-.3769-2.5626-1.061-.6841-.6842-1.061-1.5944-1.061-2.5627 0-.9682.3769-1.8785 1.061-2.5626s1.5944-1.061 2.5626-1.061c.9683 0 1.8785.3769 2.5627 1.061.6841.6841 1.061 1.5944 1.061 2.5626 0 .9683-.3769 1.8785-1.061 2.5627-.69.6841-1.5944 1.061-2.5627 1.061zm0-6.4762c-1.5712 0-2.8525 1.2755-2.8525 2.8525 0 1.5712 1.2755 2.8526 2.8525 2.8526 1.5712 0 2.8526-1.2756 2.8526-2.8526-.0058-1.5712-1.2814-2.8525-2.8526-2.8525z"/><path d="m24.3917 16.319c.3842 0 .6957-.3115.6957-.6958 0-.3842-.3115-.6957-.6957-.6957-.3843 0-.6958.3115-.6958.6957 0 .3843.3115.6958.6958.6958z"/></g></svg>