<svg fill="none" height="40" viewBox="0 0 40 40" width="40" xmlns="http://www.w3.org/2000/svg"><circle cx="20" cy="20" fill="#000" r="20"/><g fill="#fff"><path d="m15.7192 17.4161h-3.4416v10.9752h3.4416z"/><path d="m25.029 17.1782c-.1269-.0158-.2617-.0238-.3965-.0317-1.927-.0793-3.0134 1.0626-3.394 1.5543-.1031.1348-.1507.2141-.1507.2141v-1.4671h-3.2909v10.9752h3.2909.1507c0-1.1182 0-2.2284 0-3.3465 0-.6027 0-1.2054 0-1.808 0-.7455-.0555-1.5385.3172-2.2204.3172-.571.8881-.8565 1.5305-.8565 1.9032 0 1.9428 1.7208 1.9428 1.8794v.0159 6.3836h3.4416v-7.1607c0-2.4504-1.245-3.8937-3.4416-4.1316z"/><path d="m13.9984 15.9967c1.1036 0 1.9983-.8947 1.9983-1.9983 0-1.1037-.8947-1.9984-1.9983-1.9984-1.1037 0-1.9984.8947-1.9984 1.9984 0 1.1036.8947 1.9983 1.9984 1.9983z"/></g></svg>