<svg fill="none" height="160" viewBox="0 0 160 160" width="160" xmlns="http://www.w3.org/2000/svg" xmlns:xlink="http://www.w3.org/1999/xlink"><clipPath id="a"><path d="m0 0h160v160h-160z"/></clipPath><clipPath id="b"><path d="m3.47705 12.0459h151.734v154.661h-151.734z"/></clipPath><clipPath id="c"><path d="m77.9019 56.4146h3.59959v21.1682h-3.59959z"/></clipPath><clipPath id="d"><path d="m4.9082 9.89893h149.015v159.248h-149.015z"/></clipPath><g clip-path="url(#a)"><path d="m0 0h229v229h-229z" fill="#fdefdf" transform="translate(-34.6667 -24.6666)"/><g clip-path="url(#b)"><path d="m154.939 165.555.093.973h-151.37624l.30772-1.131c3.21316-11.729 17.12492-36.826 34.72932-41.685 4.1005-1.131 7.5641-2.476 10.4552-3.843.6083-1.581 1.3311-3.027 2.2042-4.244 6.0255-8.437 9.575-8.923 9.9615-8.952l1.1163-.079-.1717 1.109s-.136.902-.2719 2.298c.1789.722.1001 1.481 0 2.247-.136 1.145-.0788 2.211.2433 3.327.5725 1.961 1.5099 3.872 2.5834 5.604 1.9035 3.091 4.5585 5.596 8.0579 6.741 3.8787 1.267 8.2583 1.596 12.2658.766 3.4923-.73 6.7985-2.419 9.2387-5.046 2.6049-2.805 3.6569-6.44 4.5156-10.068-.1502-3.357-.5152-5.811-.5295-5.869l-.1718-1.109 1.1236.079c.3792.029 3.9286.515 9.9546 8.952.816 1.138 1.503 2.476 2.089 3.929 3.02 1.489 6.67 2.949 11.05 4.158 16.767 4.623 31.294 28.568 32.525 41.843zm-60.4132-.816h58.5162c-1.703-11.772-14.992-34.858-31.101-39.302-3.749-1.038-6.977-2.24-9.746-3.485 2.333 7.693 2.368 17.468 2.29 20.939-.008.565-.308 1.073-.795 1.359-.257.151-.536.229-.823.229-.257 0-.515-.064-.751-.186l-10.663-5.539c-.322-.171-.708-.186-1.045-.05l-5.8822 2.405zm18.1772-22.156c.086-4.716-.072-19.186-4.881-25.92-3.549-4.966-6.111-6.941-7.485-7.714.493 4.279 1.417 16.423-3.0274 22.47-1.9751 2.684-3.0271 6.083-3.5066 8.051l5.9254-2.419c.3726-.15.7586-.229 1.1526-.229.479 0 .959.115 1.402.344zm-14.7923-16.738c.823-3.013 1.0663-6.513 1.0592-9.633-.3578 1.274-.7658 2.526-1.3025 3.729-.8659 1.925-2.1039 3.649-3.6568 5.081-2.7766 2.54-6.3476 4.071-10.0617 4.594-2.1039.293-4.2437.286-6.3548.036-2.0824-.258-4.1864-.687-6.1257-1.496-3.3563-1.41-5.8753-4.165-7.6572-7.271-.8587-1.495-1.6316-3.113-2.1469-4.766 0 3.034.2076 6.441.9804 9.418 1.0305 1.109 8.1438 8.344 17.6187 8.587 6.1544.151 12.0869-2.626 17.6473-8.279zm-2.0466 4.515c.1288-.172.2504-.358.3721-.551-4.9021 4.058-10.0903 6.112-15.4647 6.112-.186 0-.3793 0-.5653-.008-7.0919-.186-12.8169-3.857-16.073-6.548.1933.351.4008.687.6298.995 2.2685 3.092 3.4064 6.977 3.8858 9.017.136.594-.0644 1.209-.5295 1.61-.0716.057-.1503.093-.229.143v23.609h24.8465v-23.609c-.0787-.05-.1575-.086-.229-.15-.458-.394-.6584-1.009-.5224-1.603.4723-2.04 1.6101-5.925 3.8787-9.017zm-34.9655 6.691 5.9325 2.419c-.4866-1.968-1.5386-5.367-3.5065-8.051-4.4512-6.047-3.5281-18.184-3.0343-22.47-1.374.78-3.9359 2.755-7.4854 7.714-4.809 6.734-4.9664 21.204-4.8806 25.92l10.4267-5.417c.7943-.415 1.7246-.458 2.5476-.115zm5.2026 27.688v-23.63l-5.8753-2.405c-.3435-.136-.7228-.121-1.0519.05l-10.6629 5.539c-.2361.122-.4937.186-.7442.186-.2863 0-.5725-.078-.8301-.229-.4867-.286-.7801-.794-.7944-1.359-.0715-3.428-.0429-13.032 2.2185-20.682-2.6407 1.152-5.6821 2.262-9.1958 3.228-15.6507 4.315-29.31203 26.893-33.14778 39.302h54.45908c.0859-2.061 1.1736-3.693 2.5047-3.693 1.331 0 2.4116 1.632 2.4975 3.693z" fill="#000"/><path d="m153.043 164.739h-58.5171v-23.63l5.8821-2.405c.337-.136.723-.121 1.045.05l10.663 5.539c.236.122.494.186.751.186.287 0 .566-.078.823-.229.487-.286.787-.794.795-1.359.078-3.471.043-13.246-2.29-20.939 2.769 1.245 5.997 2.447 9.746 3.485 16.109 4.444 29.398 27.53 31.102 39.302z" fill="#aea08b"/><path d="m107.822 116.663c4.809 6.734 4.967 21.204 4.881 25.92l-10.42-5.417c-.443-.229-.923-.344-1.402-.344-.394 0-.78.079-1.1524.229l-5.9254 2.419c.4795-1.968 1.5315-5.367 3.5066-8.051 4.4442-6.047 3.5212-18.191 3.0272-22.47 1.374.772 3.936 2.748 7.485 7.714z" fill="#aea08b"/><path d="m98.97 116.212c.0072 3.12-.2361 6.62-1.0591 9.633-5.5604 5.653-11.4929 8.43-17.6473 8.279-9.4749-.243-16.5882-7.478-17.6187-8.587-.7729-2.977-.9876-6.383-.9804-9.418.5152 1.653 1.2881 3.271 2.1469 4.766 1.7819 3.106 4.3009 5.861 7.6571 7.271 1.9394.809 4.0433 1.238 6.1258 1.496 2.1111.25 4.2508.257 6.3547-.036 3.7141-.522 7.2851-2.054 10.0617-4.594 1.5529-1.432 2.791-3.156 3.6569-5.081.5367-1.203.9446-2.455 1.3024-3.729z" fill="#827165"/><path d="m96.2362 129.809c-.1216.193-.2433.379-.3721.551-2.2685 3.092-3.4064 6.978-3.8787 9.017-.1359.594.0644 1.209.5224 1.603.0716.064.1503.1.229.15v23.609h-24.8465v-23.609c.0788-.05.1575-.086.229-.143.4652-.401.6656-1.016.5296-1.61-.4795-2.039-1.6173-5.925-3.8859-9.017-.229-.308-.4365-.644-.6297-.995 3.2561 2.691 8.9811 6.362 16.0729 6.548.1861.008.3793.008.5654.008 5.3743 0 10.5626-2.054 15.4646-6.112z" fill="#827165"/><g fill="#aea08b"><path d="m66.8313 139.47-5.9325-2.419c-.823-.343-1.7533-.3-2.5476.115l-10.4267 5.417c-.0859-4.716.0716-19.186 4.8806-25.92 3.5495-4.959 6.1114-6.934 7.4854-7.714-.4938 4.286-1.4169 16.423 3.0343 22.47 1.9679 2.684 3.0199 6.083 3.5065 8.051z"/><path d="m66.1015 141.109v23.63h-.6226c-.0859-2.061-1.1737-3.693-2.4976-3.693s-2.4188 1.632-2.5047 3.693h-54.45902c3.83575-12.409 17.49702-34.987 33.14772-39.302 3.5137-.966 6.5552-2.076 9.1958-3.228-2.2614 7.65-2.29 17.254-2.2184 20.682.0143.565.3077 1.073.7943 1.359.2576.151.5439.229.8301.229.2505 0 .5081-.064.7443-.186l10.6628-5.539c.3292-.171.7085-.186 1.052-.05zm-1.2095 9.546c0-2.189-1.1235-3.964-2.5118-3.964s-2.5118 1.775-2.5118 3.964c0 2.19 1.1235 3.965 2.5118 3.965s2.5118-1.775 2.5118-3.965z"/><path d="m62.38 154.62c1.3873 0 2.5118-1.775 2.5118-3.965 0-2.189-1.1245-3.964-2.5118-3.964-1.3872 0-2.5118 1.775-2.5118 3.964 0 2.19 1.1246 3.965 2.5118 3.965z"/></g></g><path d="m117.784 66.1185c.043.2934.064.5868.064.8873 0 4.0505-3.607 7.3352-8.051 7.3352-.536 0-1.066-.0644-1.581-.1574v-7.3853c.086-.0358.172-.0787.243-.1431.05-.0358.472-.3793 1.167-.6655-.043 1.2809.472 2.8839 2.44 4.1076.15.0859.308.1289.472.1289.301 0 .594-.1503.759-.4223.265-.4222.129-.9732-.286-1.2308-1.689-1.0449-1.682-2.3115-1.539-2.9699 1.123-.0215 2.49.3292 3.979 1.5243.164.136.365.2004.558.2004.265 0 .522-.1145.701-.3364.179-.2218.236-.5009.179-.7514z" fill="#f5c09b"/><path d="m117.784 66.1186-.895.1216c-.043-.1932-.15-.3721-.315-.5081-3.349-2.6907-6.54-2.0681-8.358-1.0591v-4.8376c.522-.1002 1.045-.1646 1.581-.1646 4.115 0 7.514 2.8195 7.987 6.4478z" fill="#f5c09b"/><path d="m109.797 57.8816c5.425 0 9.84 4.0934 9.84 9.1242 0 5.0309-4.415 9.1243-9.84 9.1243-.529 0-1.059-.043-1.581-.1217v.6584c0 7.7216-3.22 14.6989-8.3801 19.6797h.1145v17.6615c0 9.675-7.8719 17.547-17.5471 17.547h-3.9073c-9.6753 0-17.5472-7.872-17.5472-17.547v-18.5489c-.4866-.5153-.9589-1.0377-1.4026-1.5887-3.9216-4.8519-6.0756-10.9562-6.0756-17.2036v-.6656c-.5439.0859-1.0878.1289-1.6388.1289-5.4245 0-9.8399-4.0934-9.8399-9.1243 0-5.0308 4.4154-9.1242 9.8399-9.1242.551 0 1.0949.0501 1.6388.136v-7.1133c0-15.0926 12.2801-27.3727 27.3726-27.3727 15.0926 0 27.3728 12.2801 27.3728 27.3727v7.099c.522-.0716 1.052-.1217 1.581-.1217zm8.051 9.1242c0-.3005-.021-.5939-.064-.8873-.473-3.6283-3.872-6.4478-7.987-6.4478-.536 0-1.059.0644-1.581.1646v4.8376c1.818-1.009 5.009-1.6316 8.358 1.0591.165.136.272.3149.315.5081.058.2505 0 .5296-.179.7514-.179.2219-.436.3364-.701.3364-.193 0-.394-.0644-.558-.2004-1.489-1.1951-2.855-1.5458-3.979-1.5243-.143.6584-.15 1.925 1.539 2.9699.415.2576.551.8086.286 1.2308-.165.272-.458.4222-.759.4222-.164 0-.322-.0429-.472-.1288-1.968-1.2237-2.483-2.8267-2.44-4.1077-.694.2863-1.117.6298-1.167.6656-.071.0644-.157.1073-.243.1431v7.3853c.515.093 1.045.1574 1.581.1574 4.444 0 8.051-3.2847 8.051-7.3352zm-11.421 9.661v-25.7625c0-14.105-11.4788-25.5836-25.5838-25.5836-14.1049 0-25.5836 11.4786-25.5836 25.5836v25.7625c0 5.8395 2.0109 11.543 5.6749 16.0729 4.8878 6.047 12.1442 9.5103 19.9087 9.5103 14.105 0 25.5838-11.4711 25.5838-25.5832zm-8.2657 37.3412v-16.1587c-4.7231 3.8647-10.7558 6.1897-17.3181 6.1897s-13.146-2.447-18.1053-6.8338v16.8028c0 8.688 7.0704 15.758 15.7581 15.758h3.9073c8.6877 0 15.758-7.07 15.758-15.758zm-44.6907-39.8316v-7.7359c-.3149-.1789-.823-.4294-1.4742-.6154.1002 1.3095-.3721 2.9984-2.4331 4.2722-.1432.0859-.3078.1288-.4652.1288-.3006 0-.594-.1502-.7657-.4222-.2576-.4222-.1288-.9732.2934-1.2308 1.7032-1.052 1.6817-2.3401 1.5243-2.9914-1.1808.0287-2.5548.4079-3.9718 1.5458-.1645.136-.3578.2004-.5581.2004-.2577 0-.5224-.1145-.6942-.3364-.1789-.2218-.2362-.5009-.1789-.7514.0429-.1932.1503-.3721.3149-.5081 3.1201-2.5118 6.3547-2.1469 8.4086-1.2881v-4.6015c-.5367-.1002-1.0878-.1717-1.6388-.1717-4.1077 0-7.5069 2.8195-7.9864 6.4478-.0429.2934-.0644.5868-.0644.8873 0 4.0505 3.6139 7.3352 8.0508 7.3352.5582 0 1.1021-.0644 1.6388-.1646z" fill="#000"/><path d="m106.427 50.9043v25.7625c0 14.1121-11.4787 25.5832-25.5836 25.5832-7.7646 0-15.021-3.4633-19.9087-9.5103-3.664-4.5299-5.6749-10.2334-5.6749-16.0729v-25.7625c0-14.105 11.4714-25.5836 25.5836-25.5836 14.1121 0 25.5836 11.4786 25.5836 25.5836z" fill="#f5c09b"/><path d="m98.1615 97.8493v16.1587c0 8.688-7.0704 15.758-15.7581 15.758h-3.9073c-8.6877 0-15.7581-7.07-15.7581-15.758v-16.8028c4.9593 4.3868 11.3499 6.8338 18.1053 6.8338 6.7555 0 12.595-2.325 17.3182-6.1897z" fill="#f5c09b"/><path d="m53.4706 66.4404v7.7359c-.5367.1002-1.0806.1646-1.6388.1646-4.4369 0-8.0508-3.2847-8.0508-7.3351 0-.3006.0215-.594.0644-.8874l.9017.1216c-.0573.2505 0 .5296.1789.7514.1718.2219.4365.3364.6942.3364.2003 0 .3936-.0644.5581-.2004 1.417-1.1378 2.791-1.5171 3.9718-1.5457.1574.6512.1789 1.9393-1.5243 2.9913-.4222.2576-.551.8086-.2934 1.2309.1717.2719.4651.4222.7657.4222.1574 0 .322-.043.4652-.1288 2.061-1.2739 2.5333-2.9627 2.4331-4.2723.6512.186 1.1593.4365 1.4742.6154z" fill="#f5c09b"/><path d="m53.4704 59.8425v4.6015c-2.0539-.8588-5.2885-1.2237-8.4086 1.2881-.1646.136-.272.3149-.3149.5081l-.9017-.1216c.4795-3.6283 3.8787-6.4478 7.9864-6.4478.551 0 1.1021.0715 1.6388.1717z" fill="#f5c09b"/><g fill="#000"><path d="m93.5456 100.468c-.2147.129-.4437.251-.7014.344-4.8877 1.811-11.6217 3.006-16.81 2.018-4.6086-.873-10.8417-3.4779-14.155-7.0274l.7514 16.4524s20.1019.444 33.4984-12.8528c-.8158.4365-1.6889.7868-2.5906 1.0658z" opacity=".6"/><g clip-path="url(#c)"><path d="m80.6069 77.5827c-.4937 0-.8945-.4007-.8945-.8945v-19.3791c0-.4938.4008-.8945.8945-.8945.4938 0 .8946.4007.8946.8945v19.3791c0 .4938-.4008.8945-.8946.8945z"/><path d="m77.9019 76.6238 1.8105-19.3147.8945 20.2665h-1.832c-.5152 0-.9231-.4437-.873-.959z" opacity=".1"/></g><path d="m81.4587 84.5673c-3.07 0-5.4602-1.1879-5.6105-1.2595-.4437-.2218-.6154-.7586-.3936-1.2022.2219-.4437.7586-.6155 1.2023-.3936.0572.0286 4.809 2.3544 9.0311.0143.4294-.2362.9733-.0859 1.2166.3506.2362.4294.0859.9733-.3507 1.2166-1.7318.9589-3.4994 1.281-5.0952 1.281z"/><path d="m58.0504 61.1592c-.1216 0-.2504-.0143-.3721-.0501l-4.7374-1.2666c-.7657-.2076-1.2166-.9876-1.0091-1.7533.2076-.7657.9876-1.2166 1.7533-1.009l4.7375 1.2666c.7657.2075 1.2165.9876 1.009 1.7533-.1718.6369-.7514 1.0591-1.3812 1.0591z"/><path d="m103.715 61.1592c-.63 0-1.21-.4222-1.382-1.0591-.207-.7657.251-1.5457 1.009-1.7533l4.731-1.2666c.758-.2076 1.546.2504 1.753 1.009.208.7657-.25 1.5457-1.009 1.7533l-4.73 1.2666c-.122.0358-.251.0501-.372.0501z"/><path d="m68.0119 72.4302c5.3435 0 9.6753-4.3317 9.6753-9.6752s-4.3318-9.6753-9.6753-9.6753-9.6752 4.3318-9.6752 9.6753 4.3317 9.6752 9.6752 9.6752z"/><path d="m68.0119 53.9742c4.852 0 8.7807 3.9288 8.7807 8.7808 0 4.8519-3.9287 8.7807-8.7807 8.7807-4.8519 0-8.7807-3.9288-8.7807-8.7807 0-4.852 3.9288-8.7808 8.7807-8.7808zm0-1.789c-5.8252 0-10.5698 4.7446-10.5698 10.5698 0 5.8251 4.7446 10.5697 10.5698 10.5697s10.5698-4.7446 10.5698-10.5697c0-5.8252-4.7446-10.5698-10.5698-10.5698z"/></g><path d="m62.509 69.6035 3.1488-3.0986c.1717-.1646.4293-.2075.644-.1002l1.2595.6226c.2076.1002.458.0644.6298-.093l7.972-7.4354s-.7442-2.3973-2.6263-3.5566l-6.2975 5.8752c-.1718.1575-.4222.1933-.6298.0931l-1.2595-.6226c-.2147-.1074-.4723-.0644-.644.1002l-4.809 4.7374s.9589 2.426 2.612 3.4779z" fill="#fff"/><path d="m93.5742 72.4302c5.3435 0 9.6748-4.3317 9.6748-9.6752s-4.3313-9.6753-9.6748-9.6753-9.6753 4.3318-9.6753 9.6753 4.3318 9.6752 9.6753 9.6752z" fill="#000"/><path d="m93.5742 53.9742c4.8519 0 8.7808 3.9288 8.7808 8.7808 0 4.8519-3.9289 8.7807-8.7808 8.7807-4.852 0-8.7807-3.9288-8.7807-8.7807 0-4.852 3.9287-8.7808 8.7807-8.7808zm0-1.789c-5.8252 0-10.5698 4.7446-10.5698 10.5698 0 5.8251 4.7446 10.5697 10.5698 10.5697s10.5698-4.7446 10.5698-10.5697c0-5.8252-4.7446-10.5698-10.5698-10.5698z" fill="#000"/><path d="m88.0781 69.6035 3.1487-3.0986c.1718-.1646.4294-.2075.6441-.1002l1.2595.6226c.2075.1002.458.0644.6298-.093l7.9718-7.4354s-.744-2.3973-2.6261-3.5566l-6.2975 5.8752c-.1718.1575-.4222.1933-.6298.0931l-1.2595-.6226c-.2147-.1074-.4723-.0644-.644.1002l-4.809 4.7374s.9589 2.426 2.612 3.4779z" fill="#fff"/><path d="m77.2293 61.9965c-.5224 0-1.0233-.2862-1.2738-.78-.3578-.7013-.0859-1.5672.6154-1.9251.179-.093 4.4011-2.2112 8.4731.0144.6941.3792.9446 1.2523.5653 1.9393-.3793.6942-1.2452.9518-1.9394.5653-2.7551-1.5099-5.7607 0-5.7894.0144-.2075.1073-.4293.1574-.6512.1574z" fill="#000"/><g clip-path="url(#d)"><path d="m51.3094 59.3773s-1.6745-5.3457-.9661-8.2511c0 0-2.5476-6.1544-1.145-9.8542 0 0-2.4402-10.4982 6.5051-16.0157.6941-.4293 1.0519-1.238.8873-2.0395s-.322-1.8535-.2862-2.7838c.0358-1.0162.8516-1.8105 1.8678-1.9179 1.1163-.1145 3.0414-.551 5.9683-1.9465 5.1883-2.4617 7.743-6.3332 16.5381-3.5208 0 0 6.4191-4.92353 11.4357-2.4618 5.0165 2.4618.7013 3.5209 6.9487 7.2135 6.2469 3.6926 6.5979 5.0166 8.1799 8.0937 1.581 3.0772 4.751 2.197 5.803 5.4531 0 0-2.698.8802-2.096 2.29 0 0 .715 5.0165 1.137 10.1189.423 5.1024-3.342 15.7653-3.342 15.7653l-2.719.186s-1.338-3.1702-4.065-5.0165c0 0-1.574-10.3336-1.574-14.5558 0 0-7.693-7.7431-10.1834-10.3837 0 0-8.6447 4.1363-18.1482.1789 0 0-7.4783 5.1024-10.2907 5.9826s-2.9913 6.8628-4.4011 8.0937.1431 7.8146-.6297 10.5913c-.7729 2.7766-2.9699 7.8432-2.9699 7.8432l-2.4689-3.0557z" fill="#000"/></g></g></svg>