<svg fill="none" height="40" viewBox="0 0 40 40" width="40" xmlns="http://www.w3.org/2000/svg"><circle cx="20" cy="20" fill="#000" r="20"/><path d="m23.4916 12.6266-.3974-.6266h-2.4047v5.6431l-.0082 5.512c.0041.041.0082.086.0082.127 0 1.38-1.1225 2.5062-2.5072 2.5062s-2.5072-1.1221-2.5072-2.5062c0-1.3801 1.1225-2.5062 2.5072-2.5062.2868 0 .5653.0532.8234.1433v-2.7519c-.2662-.0451-.5407-.0697-.8234-.0697-2.8554.0041-5.1823 2.3302-5.1823 5.1886s2.3269 5.1844 5.1864 5.1844 5.1864-2.326 5.1864-5.1844v-6.5563c1.0365 1.036 2.3761 2.0475 3.8591 2.371v-2.8133c-1.61-.7126-3.2118-2.8175-3.7403-3.661z" fill="#fff"/></svg>