<svg fill="none" height="40" viewBox="0 0 40 40" width="40" xmlns="http://www.w3.org/2000/svg"><circle cx="20" cy="20" fill="#000" r="20"/><path d="m12 25.0942c1.7414.098 3.2642-.3091 4.7493-1.3871-1.5002-.2563-2.5405-.9423-3.1059-2.3596.4372-.0603.8217.0528 1.274-.1281-1.4775-.6483-2.4349-1.6208-2.4726-3.3019.4674.0377.8217.3468 1.3795.3016-1.3569-1.3268-1.7715-2.7742-.9197-4.5307 1.4173 1.6283 3.0757 2.7365 5.1036 3.2566.1131.0302.2186.0604.3317.083.5201.1206 1.1383.3769 1.4549.3392.5428-.0678 0-.6935.1357-1.5077.4297-2.5329 3.219-3.6863 5.2845-2.2012.6031.4372 1.078.4297 1.6736.1658.309-.1357.6257-.2714.995-.4297-.0829.7237-.6407 1.1232-1.0855 1.6585.5051.1131.9122-.0302 1.3795-.1809-.1583.5201-.5503.8141-.9046 1.1006-.3694.294-.5126.6031-.5277 1.0855-.2261 7.3048-8.526 12.9512-14.2025 8.4582-.5503-.4372-.0151 0-.5428-.4221z" fill="#fff"/></svg>